HIERARCHY
ROOT Hips
{
	OFFSET 0.000000 0.000000 0.000000
	CHANNELS 6 Xposition Yposition Zposition Xrotation Yrotation Zrotation
	JOINT LeftUpLeg_virtual
	{
		OFFSET 0.000000 0.000000 0.000000
		CHANNELS 3 Xrotation Yrotation Zrotation
		JOINT LeftUpLeg
		{
			OFFSET 10.205400 -3.823500 0.155100
			CHANNELS 3 Xrotation Yrotation Zrotation
			JOINT LeftLeg
			{
				OFFSET 0.708757 -12.982077 0.567790
				CHANNELS 3 Xrotation Yrotation Zrotation
				JOINT LeftFoot
				{
					OFFSET -0.708756 -10.717838 -2.184338
					CHANNELS 3 Xrotation Yrotation Zrotation
					JOINT LeftToeBase
					{
						OFFSET 0.108149 -7.191104 7.560241
						CHANNELS 3 Xrotation Yrotation Zrotation
						JOINT LeftToe_End
						{
							OFFSET 0.070230 0.081724 4.490308
							CHANNELS 3 Xrotation Yrotation Zrotation
							End Site
							{
								OFFSET 0 0 0
							}
						}
					}
				}
			}
		}
	}
	JOINT RightUpLeg_virtual
	{
		OFFSET 0.000000 0.000000 0.000000
		CHANNELS 3 Xrotation Yrotation Zrotation
		JOINT RightUpLeg
		{
			OFFSET -10.205400 -3.823500 0.005500
			CHANNELS 3 Xrotation Yrotation Zrotation
			JOINT RightLeg
			{
				OFFSET -0.708756 -12.982134 0.610632
				CHANNELS 3 Xrotation Yrotation Zrotation
				JOINT RightFoot
				{
					OFFSET 0.708754 -10.717769 -1.945823
					CHANNELS 3 Xrotation Yrotation Zrotation
					JOINT RightToeBase
					{
						OFFSET -0.108140 -7.191069 7.372968
						CHANNELS 3 Xrotation Yrotation Zrotation
						JOINT RightToe_End
						{
							OFFSET -0.070227 0.081735 4.479403
							CHANNELS 3 Xrotation Yrotation Zrotation
							End Site
							{
								OFFSET 0 0 0
							}
						}
					}
				}
			}
		}
	}
	JOINT Spine_virtual
	{
		OFFSET 0.000000 0.000000 0.000000
		CHANNELS 3 Xrotation Yrotation Zrotation
		JOINT Spine
		{
			OFFSET 0.000000 6.876099 0.125700
			CHANNELS 3 Xrotation Yrotation Zrotation
			JOINT Spine1
			{
				OFFSET 0.000000 5.730043 0.104720
				CHANNELS 3 Xrotation Yrotation Zrotation
				JOINT Spine1_split
				{
					OFFSET 0.000000 5.730043 0.104720
					CHANNELS 3 Xrotation Yrotation Zrotation
					JOINT Spine2
					{
						OFFSET 0.000000 5.730043 0.104720
						CHANNELS 3 Xrotation Yrotation Zrotation
						JOINT Neck_virtual
						{
							OFFSET 0.000000 0.000000 0.000000
							CHANNELS 3 Xrotation Yrotation Zrotation
							JOINT Neck
							{
								OFFSET 0.000000 10.314075 0.188496
								CHANNELS 3 Xrotation Yrotation Zrotation
								JOINT Head
								{
									OFFSET 0.000000 7.643700 -2.377400
									CHANNELS 3 Xrotation Yrotation Zrotation
									JOINT HeadTop_End
									{
										OFFSET 0.000000 43.788605 -13.619600
										CHANNELS 3 Xrotation Yrotation Zrotation
										End Site
										{
											OFFSET 0 0 0
										}
									}
								}
							}
						}
						JOINT LeftShoulder_virtual
						{
							OFFSET 0.000000 0.000000 0.000000
							CHANNELS 3 Xrotation Yrotation Zrotation
							JOINT LeftShoulder
							{
								OFFSET 2.196100 4.412489 0.087492
								CHANNELS 3 Xrotation Yrotation Zrotation
								JOINT LeftShoulder_split
								{
									OFFSET 2.196100 4.412489 0.087492
									CHANNELS 3 Xrotation Yrotation Zrotation
									JOINT LeftArm
									{
										OFFSET 8.771219 -2.981674 -0.026999
										CHANNELS 3 Xrotation Yrotation Zrotation
										JOINT LeftForeArm
										{
											OFFSET 8.512804 0.000000 -0.000000
											CHANNELS 3 Xrotation Yrotation Zrotation
											JOINT LeftHand
											{
												OFFSET 18.484802 0.000000 -0.000000
												CHANNELS 3 Xrotation Yrotation Zrotation
												End Site
												{
													OFFSET 0 0 0
												}
											}
										}
									}
								}
							}
						}
						JOINT RightShoulder_virtual
						{
							OFFSET 0.000000 0.000000 0.000000
							CHANNELS 3 Xrotation Yrotation Zrotation
							JOINT RightShoulder
							{
								OFFSET -2.196100 4.412496 0.070690
								CHANNELS 3 Xrotation Yrotation Zrotation
								JOINT RightShoulder_split
								{
									OFFSET -2.196100 4.412496 0.070690
									CHANNELS 3 Xrotation Yrotation Zrotation
									JOINT RightArm
									{
										OFFSET -8.771282 -2.981682 -0.094208
										CHANNELS 3 Xrotation Yrotation Zrotation
										JOINT RightForeArm
										{
											OFFSET -8.494598 0.000000 0.000000
											CHANNELS 3 Xrotation Yrotation Zrotation
											JOINT RightHand
											{
												OFFSET -18.483803 0.000000 0.000001
												CHANNELS 3 Xrotation Yrotation Zrotation
												End Site
												{
													OFFSET 0 0 0
												}
											}
										}
									}
								}
							}
						}
					}
				}
			}
		}
	}
}
MOTION
Frames: 8
Frame Time: 0.03333333
0.246627 32.463776 0.216206 0.000000 0.000000 0.000000 -1.607553 -26.476762 0.880819 -23.602236 24.654823 13.171660 27.709565 7.358125 11.755871 -8.215556 2.769749 -18.322864 1.517819 0.236082 -1.940898 0.000000 0.000000 0.000000 -2.204698 -25.457853 0.976802 -10.198749 -19.563964 -7.474862 24.317475 0.906836 -10.884579 -19.557675 -3.319103 13.417618 -0.894545 -0.764260 -0.900764 0.000000 0.000000 0.000000 -0.852157 -27.445901 0.836129 3.840240 -2.393254 0.593695 0.430424 -0.917694 0.224987 1.022466 -0.280714 0.259516 0.000000 0.000000 0.000000 0.680948 -1.000396 0.239565 -1.601446 1.682283 2.977464 17.925085 24.596666 -13.041649 0.000000 0.000000 0.000000 1.153548 -0.969891 0.244186 -0.538853 2.579352 3.443446 -1.581557 -0.039677 -0.152839 -53.311081 -2.076048 -48.357995 -10.790103 -86.424665 -10.169415 0.000000 0.000000 0.000000 1.983606 -0.639949 0.100688 -1.065797 -10.074156 9.092963 0.867707 2.079344 0.126977 -66.332209 64.229781 82.305262 -12.926539 85.400020 12.852816 0.000000 0.000000 0.000000 
0.243275 32.460968 0.210951 0.000000 0.000000 0.000000 -1.617087 -26.486743 0.878140 -23.612780 24.680404 13.177510 27.717874 7.330341 11.763188 -8.220419 2.757484 -18.330474 1.511660 0.234191 -1.929465 0.000000 0.000000 0.000000 -2.212072 -25.464801 0.973645 -10.188919 -19.573422 -7.476224 24.292889 0.888150 -10.872287 -19.555977 -3.322882 13.402260 -0.895452 -0.762290 -0.901775 0.000000 0.000000 0.000000 -0.860863 -27.445406 0.828071 3.844661 -2.396870 0.599511 0.434146 -0.917942 0.223847 1.021620 -0.296206 0.260158 0.000000 0.000000 0.000000 0.679770 -1.000615 0.236039 -1.599121 1.686071 2.984592 17.926386 24.589603 -13.042125 0.000000 0.000000 0.000000 1.158072 -0.972197 0.240434 -0.541937 2.564836 3.426246 -1.568403 -0.024741 -0.151102 -53.280711 -2.085555 -48.401736 -10.527729 -86.454417 -9.918287 0.000000 0.000000 0.000000 1.987043 -0.639569 0.099504 -1.065659 -10.074687 9.103400 0.881047 2.099007 0.136710 -66.290968 64.219747 82.284457 -12.810756 85.346970 12.741803 0.000000 0.000000 0.000000 
0.239418 32.457294 0.205139 0.000000 0.000000 0.000000 -1.625735 -26.487815 0.868105 -23.639145 24.722817 13.192329 27.719797 7.279866 11.770227 -8.228583 2.733352 -18.318501 1.506443 0.230792 -1.920748 0.000000 0.000000 0.000000 -2.217901 -25.458162 0.964593 -10.169912 -19.571646 -7.475531 24.278969 0.858560 -10.849201 -19.547740 -3.329110 13.391266 -0.905566 -0.757984 -0.906189 0.000000 0.000000 0.000000 -0.870781 -27.442385 0.815914 3.849016 -2.401251 0.611374 0.439110 -0.918198 0.222044 1.021317 -0.312384 0.259208 0.000000 0.000000 0.000000 0.678621 -1.002629 0.231573 -1.600590 1.697028 2.997081 17.931542 24.589407 -13.048786 0.000000 0.000000 0.000000 1.160832 -0.976321 0.235570 -0.544586 2.563718 3.393157 -1.566264 0.001748 -0.127784 -53.273512 -2.077892 -48.493899 -10.028517 -86.453147 -9.432817 0.000000 0.000000 0.000000 1.989175 -0.641120 0.098117 -1.061734 -10.078449 9.129607 0.877652 2.107168 0.132535 -66.219155 64.215294 82.235498 -12.741742 85.304637 12.683939 0.000000 0.000000 0.000000 
0.235677 32.454029 0.201038 0.000000 0.000000 0.000000 -1.632084 -26.479472 0.853100 -23.683068 24.773851 13.216125 27.716453 7.213090 11.776654 -8.227263 2.701937 -18.283160 1.496859 0.226471 -1.916701 0.000000 0.000000 0.000000 -2.220836 -25.439723 0.951986 -10.145355 -19.556980 -7.474722 24.270133 0.823078 -10.819003 -19.536383 -3.336487 13.385645 -0.920798 -0.752276 -0.912563 0.000000 0.000000 0.000000 -0.878917 -27.434348 0.802698 3.851624 -2.405730 0.627982 0.445259 -0.917809 0.220511 1.017136 -0.321393 0.255328 0.000000 0.000000 0.000000 0.678726 -1.005818 0.227667 -1.605087 1.711557 3.010165 17.940646 24.592812 -13.059510 0.000000 0.000000 0.000000 1.162106 -0.981188 0.230334 -0.546910 2.574432 3.359610 -1.570299 0.037254 -0.087464 -53.276521 -2.050433 -48.617604 -9.394437 -86.429876 -8.815353 0.000000 0.000000 0.000000 1.989545 -0.644306 0.096810 -1.055446 -10.089625 9.164981 0.865954 2.105453 0.116308 -66.135943 64.220396 82.168016 -12.762011 85.290731 12.719521 0.000000 0.000000 0.000000 
0.232174 32.451084 0.196581 0.000000 0.000000 0.000000 -1.635973 -26.461171 0.836106 -23.744331 24.827389 13.244035 27.710962 7.137880 11.782530 -8.208976 2.672541 -18.220585 1.484636 0.221862 -1.919559 0.000000 0.000000 0.000000 -2.222045 -25.410906 0.938268 -10.122658 -19.531527 -7.474493 24.265830 0.782655 -10.784424 -19.526382 -3.345531 13.379300 -0.925280 -0.746572 -0.917388 0.000000 0.000000 0.000000 -0.884095 -27.419315 0.791351 3.852601 -2.410070 0.646080 0.453074 -0.917187 0.219857 1.013096 -0.328892 0.251713 0.000000 0.000000 0.000000 0.680481 -1.009495 0.225374 -1.611019 1.727035 3.018300 17.951033 24.595033 -13.070530 0.000000 0.000000 0.000000 1.162683 -0.986125 0.225762 -0.548653 2.592149 3.344844 -1.579874 0.074939 -0.056365 -53.272392 -2.002688 -48.752941 -8.837253 -86.406968 -8.276165 0.000000 0.000000 0.000000 1.988961 -0.648152 0.096310 -1.048333 -10.109817 9.200019 0.852490 2.103334 0.095396 -66.056610 64.243871 82.096647 -12.861044 85.310401 12.834400 0.000000 0.000000 0.000000 
0.228944 32.447784 0.190781 0.000000 0.000000 0.000000 -1.637276 -26.435118 0.821127 -23.823094 24.879621 13.270017 27.708810 7.062048 11.788298 -8.177078 2.653460 -18.134284 1.478806 0.217673 -1.931501 0.000000 0.000000 0.000000 -2.221601 -25.377442 0.927242 -10.108432 -19.499369 -7.475465 24.263477 0.738823 -10.748484 -19.522696 -3.356482 13.366985 -0.911106 -0.742152 -0.918354 0.000000 0.000000 0.000000 -0.889280 -27.395617 0.782295 3.853290 -2.413707 0.661232 0.462925 -0.916439 0.219980 1.010850 -0.336233 0.252189 0.000000 0.000000 0.000000 0.683881 -1.012933 0.225402 -1.618352 1.740465 3.019150 17.955821 24.589620 -13.075739 0.000000 0.000000 0.000000 1.164303 -0.990553 0.222373 -0.549753 2.609974 3.366792 -1.576945 0.107566 -0.029847 -53.250764 -1.931142 -48.881014 -8.471076 -86.416079 -7.931903 0.000000 0.000000 0.000000 1.988625 -0.651420 0.097064 -1.042444 -10.138933 9.232224 0.839828 2.104462 0.073452 -65.991669 64.288309 82.030073 -12.991395 85.350672 12.977187 0.000000 0.000000 0.000000 
0.226622 32.443253 0.182638 0.000000 0.000000 0.000000 -1.635741 -26.404159 0.810899 -23.914777 24.927786 13.287733 27.715502 6.986384 11.795882 -8.139792 2.645129 -18.038796 1.479728 0.214066 -1.950364 0.000000 0.000000 0.000000 -2.219810 -25.340990 0.920850 -10.108473 -19.468298 -7.479731 24.271321 0.692464 -10.713495 -19.525779 -3.368898 13.348453 -0.887365 -0.739894 -0.916020 0.000000 0.000000 0.000000 -0.895418 -27.366082 0.774380 3.856340 -2.415712 0.668844 0.475857 -0.915546 0.219911 1.015400 -0.337902 0.256861 0.000000 0.000000 0.000000 0.687983 -1.015055 0.227429 -1.627182 1.748473 3.013283 17.951757 24.576043 -13.070466 0.000000 0.000000 0.000000 1.168366 -0.993383 0.220366 -0.549742 2.621000 3.439304 -1.568629 0.131347 -0.016721 -53.209325 -1.832770 -48.983142 -8.391868 -86.471028 -7.876038 0.000000 0.000000 0.000000 1.989373 -0.652667 0.099124 -1.039304 -10.176903 9.264354 0.832628 2.106868 0.059418 -65.934275 64.350825 81.965159 -13.127419 85.405000 13.119227 0.000000 0.000000 0.000000 
0.225651 32.436867 0.173931 0.000000 0.000000 0.000000 -1.633024 -26.369564 0.804886 -24.016286 24.969843 13.295544 27.738882 6.905804 11.806296 -8.105195 2.642223 -17.955662 1.477207 0.211651 -1.968577 0.000000 0.000000 0.000000 -2.218337 -25.306184 0.918261 -10.127418 -19.447005 -7.488899 24.296023 0.646468 -10.681267 -19.533156 -3.380651 13.329342 -0.866497 -0.739841 -0.912857 0.000000 0.000000 0.000000 -0.901713 -27.330818 0.765098 3.864681 -2.414996 0.665892 0.491865 -0.914422 0.218687 1.025924 -0.342304 0.262602 0.000000 0.000000 0.000000 0.691165 -1.015049 0.229742 -1.637649 1.748156 3.005901 17.936362 24.551038 -13.048907 0.000000 0.000000 0.000000 1.176066 -0.993959 0.218810 -0.548567 2.621973 3.567647 -1.555672 0.148069 -0.009948 -53.165813 -1.707134 -49.049238 -8.588910 -86.572573 -8.098957 0.000000 0.000000 0.000000 1.993418 -0.650152 0.101348 -1.040830 -10.222738 9.304240 0.836765 2.103761 0.054352 -65.876232 64.418089 81.892185 -13.288177 85.483943 13.277828 0.000000 0.000000 0.000000 
